# xmcd
#
# Track frame offsets: 
#        150
#        15462
#        34675
#        55687
#        87025
#        110675
#        134287
#        149060
#        166125
#        185875
#        212287
#        235925
#        252562
#
# Disc length: 3683 seconds
#
# Revision: 0
# Processed by: cddbd v1.5.2PL0 Copyright (c) Steve Scherf et al.
# Submitted via: ExactAudioCopy v1.0b1
#
DISCID=b20e610d
DTITLE=Peters Drury Trio - Fly me to the moon
DYEAR=2000
DGENRE=Audiophile
TTITLE0=Fly me to the moon
TTITLE1=Fever
TTITLE2=Cheek to cheek
TTITLE3=All or nothing at all
TTITLE4=Summertime
TTITLE5=Not meant to fall
TTITLE6=The days of wine and roses
TTITLE7=I get a kick out of you
TTITLE8=Simple words
TTITLE9=Is you is or is you ain't - steppin' out
TTITLE10=When your lover has gone
TTITLE11=Baby, I don't want to know
TTITLE12=Let's fall in love
EXTD=
EXTT0=
EXTT1=
EXTT2=
EXTT3=
EXTT4=
EXTT5=
EXTT6=
EXTT7=
EXTT8=
EXTT9=
EXTT10=
EXTT11=
EXTT12=
PLAYORDER=
